<svg width="39" height="48" viewBox="0 0 39 48" fill="none" xmlns="http://www.w3.org/2000/svg">
<path d="M0 7.5C0 3.35786 3.35786 0 7.5 0H19.2H24.6436C25.7565 0 26.8119 0.494336 27.5244 1.34931L37.5308 13.357C38.0924 14.0309 38.4 14.8804 38.4 15.7577V24V40.5C38.4 44.6421 35.0421 48 30.9 48H7.5C3.35786 48 0 44.6421 0 40.5V7.5Z" fill="#C7BDB2"/>
<path d="M26.9532 17.8228C25.648 11.2437 15.3456 12.0811 15.9101 20.351C15.9202 20.4649 15.9328 20.5765 15.9456 20.6874C15.337 21.0256 14.7649 21.5034 14.2599 22.1385C12.9547 15.5595 2.65206 16.3976 3.21672 24.6667C3.59261 28.8019 5.82805 31.1369 10.7019 36.8269C16.6587 34.3979 19.7517 33.2766 21.9182 30.7903C22.3816 31.33 22.8721 31.9003 23.3953 32.5112C30.3327 29.6822 33.3885 28.6289 35.6154 25.1242C39.9003 18.029 31.1244 12.5703 26.9532 17.8228ZM34.4218 24.9473C32.459 28.0363 29.7657 28.9648 23.6502 31.4587C23.2373 30.9768 22.8474 30.5235 22.4763 30.092C22.6293 29.8839 22.7774 29.6671 22.9221 29.4396C26.3879 23.7013 21.3089 19.034 17.0339 20.2376C16.9785 13.4201 25.6633 12.8476 26.7865 18.511C30.4636 13.8807 38.1994 18.6927 34.4218 24.9473Z" fill="#9E0050"/>
<path d="M26.9532 17.8228C25.648 11.2437 15.3456 12.0811 15.9101 20.351C15.9202 20.4649 15.9328 20.5765 15.9456 20.6874C15.337 21.0256 14.7649 21.5034 14.2599 22.1385C12.9547 15.5595 2.65206 16.3976 3.21672 24.6667C3.59261 28.8019 5.82805 31.1369 10.7019 36.8269C16.6587 34.3979 19.7517 33.2766 21.9182 30.7903C22.3816 31.33 22.8721 31.9003 23.3953 32.5112C30.3327 29.6822 33.3885 28.6289 35.6154 25.1242C39.9003 18.029 31.1244 12.5703 26.9532 17.8228ZM34.4218 24.9473C32.459 28.0363 29.7657 28.9648 23.6502 31.4587C23.2373 30.9768 22.8474 30.5235 22.4763 30.092C22.6293 29.8839 22.7774 29.6671 22.9221 29.4396C26.3879 23.7013 21.3089 19.034 17.0339 20.2376C16.9785 13.4201 25.6633 12.8476 26.7865 18.511C30.4636 13.8807 38.1994 18.6927 34.4218 24.9473Z" fill="black" fillOpacity="0.2"/>
</svg>
